<?xml version="1.0" encoding="UTF-8"?>
<svg id="Layer_1" data-name="Layer 1" xmlns="http://www.w3.org/2000/svg" viewBox="0 0 697.07 162.85">
  <rect x="0" y="133.3" width="697.07" height="29.54"/>
  <polygon points="228.81 98.33 205.9 98.52 160.16 36.5 160.03 98.51 137.08 98.46 137.17 2.36 162.78 2.34 206 60.88 206.11 2.33 228.71 2.39 228.81 98.33"/>
  <path d="M530.67,100.67c-8.71,1.62-17.62,1.64-25.67.15-24.07-4.45-39.96-24.47-40.3-48.26-.28-19.94,8.27-37.13,26.15-46.51,8.69-4.56,18.17-5.79,28.14-5.92,30.48-.4,53.48,24,51.75,54.35-1.31,22.97-16.47,41.8-40.08,46.19ZM542.18,68.38c7.03-11.59,5.43-26.02-1.37-36.52-3.92-6.05-9.73-9.12-16.27-10.91-16.62-4.54-32.66,5.55-35.52,22.66-1.82,10.89-.05,22.61,8.4,30.65,12.89,12.26,35.17,9.94,44.77-5.88Z"/>
  <path d="M675.97,98.28l-27.42.32-22.21-33.2h-16.96s.01,33.09.01,33.09h-23.33s0-96.17,0-96.17l48.99-.02c7.78,0,15.22,1.63,21.8,5.24,7.75,4.66,12.16,11.87,13.64,20.65,2.54,15.02-5.04,29-20.33,34.19l25.81,35.89ZM642.22,23.64c-2.89-2.03-7.74-3.22-10.98-3.2l-21.81.13-.06,27.87,23.58-.22c5.95-.05,11.44-4.16,13.08-8.62,1.98-5.4,1.58-12.18-3.81-15.97Z"/>
  <polygon points="447.62 98.41 424.25 98.5 424.22 57.61 382.07 57.48 382.07 98.51 358.42 98.38 358.46 2.41 382.02 2.31 382.1 38.51 424.16 38.44 424.33 2.27 447.58 2.4 447.62 98.41"/>
  <path d="M92.08,77.48l-41.48-.08-8.12,21.05-24.96-.05L55.8,2.31l30.28.03,39.19,96.05-25.05.11-8.14-21.03ZM84.93,59l-14.08-35.9-13.82,35.87,27.9.03Z"/>
  <path d="M270.04,50.98c.15,11.72,5.16,22.26,15.07,27.37,13.83,7.13,29.83,3.34,40.71-7.83,5.66,4.21,10.83,8.79,15.87,13.64-11.54,13.8-27.73,17.81-44.45,17.83-30.11.04-52.52-22.8-51.86-52.42C246.05,19.93,268.51-.77,298.28.02c15.91.42,31.82,4.48,41.73,18.28l-16.23,12.2c-10.57-10.91-27.01-14.12-40.24-6.49-9.31,5.37-13.65,15.72-13.51,26.96Z"/>
</svg>