<?xml version="1.0" encoding="UTF-8"?>
<svg id="Layer_1" data-name="Layer 1" xmlns="http://www.w3.org/2000/svg" viewBox="0 0 1045.37 1315.45">
  <path d="M470.41,1257.59c-41.07-36.84-84.34-58.85-133.75-82.08-21.55-10.13-42.13-20.22-62.9-32.13-41.99-24.08-79.89-53.55-112.66-89.2-40.09-43.6-71.33-91.76-92.61-147.86-17.9,14.14-32.09,28.06-43.5,46.77-.79,1.29-3.6,2.82-4.93,2.69-1.52-.14-3.82-2.46-4.35-4.35-3.65-13.08-6.49-25.72-8.65-39.22l-2.03-12.71c-.61-3.81-1.13-7.87-1.5-11.72l-1.45-15.21-1.22-19.2c-.97-15.19-1.23-30.37-.14-45.69l1.34-18.96,1.58-16.08c.38-3.85.95-7.87,1.54-11.58l1.8-11.18c5.02-31.21,15.06-60.27,29.21-88.48,4.46-8.88,9.34-17.97,14.83-25.91.66-.96,4.31-.95,4.93.1,5.15,8.8,10.49,19.1,15.03,28.57,22.91,47.8,40.17,79.41,76.41,118.39,6.16,6.62,12.02,12.57,18.77,18.44l15.51,13.48,36.16,29.84c2.28,1.88,5.93,7.07,2.64,9.57-4.85,3.69-12.22,4.27-18.37,5.6l-46.67,10.11c-1.39.3-3.68.7-3.85,1.68s.41,3.28.96,4.27c8.13,14.59,15.84,28.93,26.65,41.53,5.02,5.86,10.48,10.84,15.94,16.17,8.58,8.37,16.21,16.64,25.28,24.62,27.09,23.81,59.52,39.5,95.26,45.44,15.37,2.56,28.77,2.49,44.49,1.66,2.37-.12,5.72-.97,8.33-1.31,16.58-2.15,38.99-10.08,49.3-23.54,5.26-6.87,9.46-13.62,12.64-21.62,7.13-17.94,11.22-40.5,12.87-59.79l1.46-17.06,1.51-28.97,1.68-38.3,1-37.27c.18-6.58.85-12.94.96-19.53.19-11.29.8-22.1,1.08-33.38l1-40.25c.28-11.26,1.21-21.96,1.15-33.29-.04-8.11.92-15.89,1.08-23.99l.73-38.73c.11-5.76,1.06-11.44,1.1-17.23.11-14.44.77-28.2.95-42.5l.69-53.6c-4.42-1.29-8.59-1.86-13.11-2.39l-13.04-1.53-12.06-1.4-7.17-.92-11.98-1.47-12-1.47-12.82-1.58-12.18-1.51-12.9-1.63-12.03-1.51-14.25-1.74-11.77-1.44-13.03-1.6-11.78-1.44-13.24-1.58-12.8-1.53-11.23-1.48c-4.26-.56-7.99-2.95-7.99-7.77l.07-73.92c0-3.7,2.94-8.05,7.28-8.05l210.07-.04.04-48.72c0-2.83.62-5.36-.6-7.71-47.74-21.01-84.16-65.84-92.88-117.39-2.51-14.85-2.77-39.73-.13-54.01C378.85,61.7,434.8,9.11,504.63.76c12.06-1.44,34.39-.73,46.53,1.37,67.43,11.68,119.94,65.99,128.47,134.14,1.68,13.41,1.37,27.33-.03,40.92-3.03,29.22-15.11,55.63-33.34,78.43-7.33,9.16-15.87,16.41-24.14,24.59-12.09,8.94-24.09,16.78-37.88,22.52l.08,55.88h211.03c4.27,0,6.87,4.63,6.87,8.51l.03,73.01c0,5.05-4.25,7.85-8.3,8.33l-11.49,1.37-13.8,1.63-12.24,1.44-12.81,1.52-12.98,1.57-11.82,1.46-13.29,1.68-13.06,1.64-12.84,1.61-7.12.91-11.01,1.32-12.09,1.5-12.91,1.6-12.08,1.5-12.01,1.5-12.09,1.51c-5.19.65-10.54,1.35-15.27,2.45l.62,31.03c.27,13.6.97,26.65,1.27,40.24l.96,43.43c.23,10.55.98,20.67.86,31.3-.1,9.18,1.1,17.87,1.3,27.01l.66,31.05c.16,7.75,1.16,15.15,1.1,22.94-.07,9.86,1.08,19.15,1.33,28.97l.66,26.01c.18,7.12,1.13,13.85,1.08,21.02s1.03,13.23,1.26,20.09l.71,20.9,1.77,27.05,1.56,25.75,1.5,17.25,1.45,12.81,1.74,11.92c3.53,24.11,13.43,59.8,33.7,75.02,24.02,18.03,63.04,19.55,91.63,14.85,35.76-5.88,67.63-22.32,95.03-45.85,13.5-13.24,26.64-25.62,39.41-39.62,12.56-13.77,20.64-30.19,29.57-47.01-24.97-7.26-44.31-8.64-67.44-15.17l-2.96-2.86c-3.6-3.48,15.71-18.5,19.36-21.41,41.87-33.38,83.55-74.87,107.78-123.23l26.71-53.32c3.6-7.19,6.96-13.76,11.87-20.18.98-1.28,5.08,1.94,6.06,3.49,20.99,33.04,38.56,80.98,44,120.18l1.72,12.39,1.57,14.03,1.44,19.9c1.36,18.83,1.45,37.32-.02,56.11l-1.4,17.85-1.53,13.08-1.62,11.8-1.82,11.02c-2.11,12.8-5,25.49-8.81,37.79-.35,1.13-2.58,3.24-3.62,3.69-1.18.51-3.9-1.34-4.75-2.62-12.16-18.25-26.9-33.9-45.23-46.76-27.54,71.25-70.66,130.62-127.05,181.02-47.93,42.85-93.95,66.47-151.37,93.57-42.25,19.94-82.2,43.16-117.36,73.69-12.93,11.23-24.76,22.36-35.54,35.49l-20.61,25.09-14.35-17.59c-11.13-13.65-25.52-28.34-38.81-40.27ZM603.49,158.06c0-44.72-36.25-80.97-80.97-80.97s-80.97,36.25-80.97,80.97,36.25,80.97,80.97,80.97,80.97-36.25,80.97-80.97Z"/>
</svg>